<svg width="2000px" height="1069px"
 viewBox="0.00 0.00 462.49 247.11" xmlns="http://www.w3.org/2000/svg" xmlns:xlink="http://www.w3.org/1999/xlink">
<g id="graph0" class="graph" transform="scale(1.0 1.0) rotate(0) translate(4 243.11)">
<title>ContextMapGraph</title>
<polygon fill="white" stroke="transparent" points="-4,4 -4,-243.11 458.49,-243.11 458.49,4 -4,4"/>
<!-- gestionCliente -->
<g id="node1" class="node">
<title>gestionCliente</title>
<polygon fill="none" stroke="black" stroke-width="2" points="16.69,-66.93 13.54,-64.34 10.7,-61.71 8.17,-59.07 5.97,-56.41 4.1,-53.74 2.59,-51.09 1.43,-48.45 0.64,-45.84 0.21,-43.26 0.16,-40.73 0.48,-38.26 1.17,-35.84 2.24,-33.49 3.68,-31.22 5.48,-29.03 7.65,-26.92 10.18,-24.91 13.05,-22.99 16.26,-21.18 19.79,-19.46 23.63,-17.86 27.78,-16.36 32.2,-14.97 36.9,-13.69 41.84,-12.53 47.02,-11.47 52.4,-10.53 57.99,-9.7 63.74,-8.97 69.64,-8.36 75.67,-7.85 81.82,-7.44 88.04,-7.13 94.34,-6.93 100.67,-6.82 107.03,-6.8 113.39,-6.88 119.73,-7.05 126.02,-7.3 132.26,-7.64 138.41,-8.06 144.47,-8.56 150.41,-9.14 156.22,-9.8 161.88,-10.52 167.37,-11.32 172.69,-12.2 177.82,-13.14 182.74,-14.15 187.45,-15.23 191.94,-16.37 196.19,-17.58 200.21,-18.85 203.97,-20.19 207.49,-21.6 210.74,-23.06 213.74,-24.59 216.46,-26.18 218.93,-27.83 221.12,-29.54 223.04,-31.3 224.69,-33.13 226.08,-35.01 227.19,-36.94 228.04,-38.92 228.62,-40.95 228.93,-43.02 228.99,-45.14 228.79,-47.3 228.33,-49.48 227.63,-51.7 226.67,-53.94 225.47,-56.2 224.03,-58.48 222.36,-60.76 220.45,-63.04 218.31,-65.31 215.95,-67.57 213.37,-69.81 210.58,-72.01 207.57,-74.18 204.36,-76.3 200.95,-78.37 197.34,-80.38 193.55,-82.31 189.57,-84.17 185.41,-85.93 181.07,-87.6 176.58,-89.17 171.92,-90.62 167.12,-91.96 162.17,-93.16 157.09,-94.24 151.88,-95.17 146.56,-95.96 141.14,-96.6 135.62,-97.08 130.02,-97.41 124.35,-97.58 118.62,-97.58 112.86,-97.42 107.06,-97.1 101.25,-96.61 95.44,-95.95 89.65,-95.14 83.9,-94.16 78.19,-93.03 72.55,-91.74 67,-90.31 61.55,-88.74 56.23,-87.03 51.04,-85.2 46.01,-83.24 41.16,-81.18 36.5,-79.01 32.05,-76.74 27.83,-74.39 23.85,-71.96 20.13,-69.47 16.69,-66.93"/>
<text text-anchor="middle" x="119.84" y="-45.06" font-family="sans-serif" font-size="16.00">gestionCliente</text>
</g>
<!-- gestionpagos -->
<g id="node2" class="node">
<title>gestionpagos</title>
<polygon fill="none" stroke="black" stroke-width="2" points="375.13,-233.72 368.61,-234.85 362.02,-235.87 355.38,-236.76 348.72,-237.53 342.06,-238.16 335.44,-238.65 328.87,-239.01 322.37,-239.23 315.98,-239.3 309.72,-239.24 303.59,-239.03 297.63,-238.67 291.85,-238.17 286.27,-237.53 280.9,-236.75 275.76,-235.83 270.86,-234.78 266.21,-233.59 261.82,-232.28 257.7,-230.84 253.85,-229.29 250.28,-227.62 246.99,-225.85 243.99,-223.98 241.27,-222.01 238.83,-219.96 236.67,-217.83 234.8,-215.63 233.19,-213.36 231.87,-211.04 230.8,-208.67 230,-206.27 229.45,-203.83 229.15,-201.37 229.1,-198.9 229.27,-196.43 229.68,-193.95 230.31,-191.49 231.14,-189.05 232.19,-186.63 233.44,-184.25 234.88,-181.91 236.51,-179.62 238.33,-177.38 240.32,-175.2 242.49,-173.09 244.82,-171.05 247.33,-169.08 249.99,-167.2 252.82,-165.41 255.8,-163.7 258.94,-162.09 262.23,-160.57 265.67,-159.15 269.26,-157.83 273,-156.61 276.88,-155.5 280.91,-154.49 285.08,-153.59 289.38,-152.8 293.82,-152.11 298.39,-151.53 303.09,-151.06 307.91,-150.7 312.85,-150.44 317.89,-150.28 323.04,-150.23 328.29,-150.28 333.61,-150.44 339.02,-150.69 344.49,-151.04 350.01,-151.49 355.56,-152.04 361.14,-152.68 366.73,-153.41 372.31,-154.24 377.87,-155.15 383.38,-156.15 388.84,-157.23 394.21,-158.4 399.48,-159.64 404.63,-160.97 409.64,-162.37 414.48,-163.84 419.15,-165.39 423.6,-167.01 427.84,-168.69 431.83,-170.43 435.56,-172.24 439,-174.1 442.14,-176.02 444.96,-177.99 447.45,-180.01 449.59,-182.07 451.37,-184.17 452.77,-186.3 453.78,-188.47 454.41,-190.66 454.63,-192.87 454.45,-195.1 453.86,-197.34 452.86,-199.59 451.45,-201.83 449.63,-204.07 447.42,-206.3 444.81,-208.51 441.82,-210.69 438.45,-212.84 434.72,-214.95 430.65,-217.02 426.24,-219.03 421.52,-220.98 416.51,-222.87 411.23,-224.69 405.7,-226.43 399.94,-228.08 393.98,-229.64 387.84,-231.11 381.55,-232.47 375.13,-233.72"/>
<text text-anchor="middle" x="333.84" y="-189.12" font-family="sans-serif" font-size="16.00">gestionpagos</text>
</g>
<!-- ventas -->
<g id="node3" class="node">
<title>ventas</title>
<polygon fill="none" stroke="black" stroke-width="2" points="115.39,-236.62 110.81,-236.49 106.27,-236.23 101.79,-235.85 97.39,-235.35 93.09,-234.74 88.89,-234.01 84.83,-233.16 80.91,-232.21 77.14,-231.15 73.55,-229.98 70.14,-228.71 66.92,-227.33 63.91,-225.87 61.12,-224.31 58.55,-222.66 56.2,-220.93 54.09,-219.13 52.21,-217.25 50.58,-215.3 49.19,-213.29 48.03,-211.22 47.12,-209.1 46.45,-206.94 46.01,-204.74 45.8,-202.5 45.81,-200.24 46.04,-197.96 46.49,-195.66 47.14,-193.36 47.98,-191.05 49.02,-188.75 50.23,-186.46 51.61,-184.19 53.15,-181.95 54.83,-179.73 56.66,-177.55 58.62,-175.42 60.7,-173.33 62.89,-171.3 65.18,-169.33 67.57,-167.42 70.04,-165.59 72.58,-163.83 75.2,-162.16 77.87,-160.57 80.6,-159.06 83.38,-157.66 86.2,-156.35 89.06,-155.14 91.96,-154.04 94.88,-153.04 97.83,-152.16 100.8,-151.39 103.78,-150.73 106.79,-150.19 109.81,-149.76 112.84,-149.46 115.88,-149.27 118.92,-149.2 121.98,-149.26 125.04,-149.43 128.09,-149.72 131.15,-150.13 134.21,-150.66 137.25,-151.3 140.29,-152.05 143.32,-152.92 146.33,-153.89 149.32,-154.97 152.28,-156.16 155.21,-157.44 158.1,-158.82 160.95,-160.29 163.74,-161.84 166.48,-163.49 169.14,-165.21 171.74,-167.01 174.24,-168.87 176.65,-170.8 178.96,-172.79 181.15,-174.84 183.22,-176.93 185.15,-179.07 186.94,-181.24 188.57,-183.44 190.03,-185.67 191.32,-187.92 192.42,-190.19 193.33,-192.46 194.03,-194.73 194.52,-197 194.78,-199.25 194.82,-201.49 194.63,-203.71 194.2,-205.9 193.52,-208.05 192.6,-210.16 191.44,-212.23 190.03,-214.24 188.37,-216.2 186.46,-218.09 184.32,-219.92 181.93,-221.68 179.32,-223.35 176.48,-224.95 173.43,-226.45 170.17,-227.87 166.71,-229.19 163.08,-230.42 159.27,-231.54 155.31,-232.56 151.21,-233.47 146.98,-234.27 142.64,-234.96 138.22,-235.53 133.72,-235.99 129.17,-236.32 124.59,-236.54 119.99,-236.64 115.39,-236.62"/>
<text text-anchor="middle" x="119.84" y="-189.12" font-family="sans-serif" font-size="16.00">ventas</text>
</g>
<!-- ventas&#45;&gt;gestionCliente -->
<g id="edge1" class="edge">
<title>ventas&#45;&gt;gestionCliente</title>
<path fill="none" stroke="black" stroke-width="2" d="M119.84,-148.91C119.84,-132.74 119.84,-114.26 119.84,-97.68"/>
<text text-anchor="middle" x="195.34" y="-119.12" font-family="sans-serif" font-size="12.00"> &#160;&#160;&#160;&#160;&#160;&#160;&#160;&#160;&#160;&#160;&#160;&#160;&#160;&#160;&#160;&#160;&#160;&#160;&#160;&#160;&#160;&#160;&#160;&#160;&#160;&#160;&#160;&#160;&#160;&#160;&#160;&#160;&#160;&#160;&#160;&#160;&#160;&#160;&#160;</text>
<polygon fill="white" stroke="transparent" points="112.84,-88.68 112.84,-105.68 126.84,-105.68 126.84,-88.68 112.84,-88.68"/>
<text text-anchor="start" x="114.84" y="-94.08" font-family="sans-serif" font-size="12.00">D</text>
<polygon fill="white" stroke="transparent" points="112.84,-139.91 112.84,-156.91 126.84,-156.91 126.84,-139.91 112.84,-139.91"/>
<text text-anchor="start" x="114.84" y="-145.31" font-family="sans-serif" font-size="12.00">U</text>
</g>
</g>
</svg>
