<svg width="2000px" height="176px"
 viewBox="0.00 0.00 1170.12 103.47" xmlns="http://www.w3.org/2000/svg" xmlns:xlink="http://www.w3.org/1999/xlink">
<g id="graph0" class="graph" transform="scale(1.0 1.0) rotate(0) translate(4 99.47)">
<title>ContextMapGraph</title>
<polygon fill="white" stroke="transparent" points="-4,4 -4,-99.47 1166.12,-99.47 1166.12,4 -4,4"/>
<!-- gestiondevolucones -->
<g id="node1" class="node">
<title>gestiondevolucones</title>
<polygon fill="none" stroke="black" stroke-width="2" points="236.62,-10.09 244.88,-11.51 252.89,-13.03 260.61,-14.63 268.01,-16.32 275.06,-18.09 281.72,-19.92 287.98,-21.82 293.8,-23.78 299.17,-25.8 304.06,-27.86 308.45,-29.95 312.33,-32.08 315.69,-34.24 318.51,-36.42 320.79,-38.61 322.52,-40.82 323.7,-43.02 324.33,-45.23 324.41,-47.42 323.95,-49.61 322.96,-51.78 321.45,-53.92 319.43,-56.04 316.92,-58.12 313.93,-60.17 310.49,-62.18 306.6,-64.15 302.31,-66.07 297.62,-67.93 292.57,-69.75 287.19,-71.5 281.48,-73.2 275.5,-74.83 269.25,-76.39 262.78,-77.88 256.1,-79.3 249.24,-80.65 242.24,-81.92 235.11,-83.1 227.89,-84.21 220.6,-85.23 213.25,-86.16 205.88,-87.01 198.51,-87.76 191.15,-88.42 183.82,-88.98 176.55,-89.44 169.34,-89.81 162.22,-90.08 155.2,-90.24 148.28,-90.3 141.49,-90.25 134.82,-90.1 128.29,-89.84 121.91,-89.47 115.68,-88.99 109.6,-88.4 103.69,-87.71 97.95,-86.9 92.37,-85.99 86.97,-84.97 81.75,-83.85 76.7,-82.62 71.84,-81.28 67.16,-79.85 62.68,-78.32 58.38,-76.69 54.28,-74.97 50.38,-73.16 46.68,-71.27 43.19,-69.3 39.92,-67.25 36.87,-65.14 34.05,-62.96 31.47,-60.72 29.13,-58.43 27.04,-56.1 25.22,-53.73 23.67,-51.33 22.41,-48.9 21.43,-46.46 20.77,-44.01 20.42,-41.57 20.39,-39.13 20.71,-36.7 21.37,-34.3 22.38,-31.93 23.76,-29.61 25.52,-27.33 27.65,-25.11 30.18,-22.95 33.09,-20.87 36.4,-18.87 40.11,-16.95 44.22,-15.12 48.72,-13.4 53.61,-11.78 58.89,-10.27 64.55,-8.87 70.59,-7.6 76.98,-6.46 83.71,-5.44 90.78,-4.55 98.15,-3.8 105.82,-3.18 113.75,-2.71 121.93,-2.37 130.32,-2.17 138.91,-2.11 147.66,-2.19 156.53,-2.4 165.51,-2.75 174.54,-3.24 183.61,-3.86 192.67,-4.6 201.69,-5.47 210.63,-6.45 219.45,-7.56 228.13,-8.77 236.62,-10.09"/>
<text text-anchor="middle" x="162.3" y="-43.93" font-family="sans-serif" font-size="16.00">gestiondevolucones</text>
</g>
<!-- gestionlibros -->
<g id="node2" class="node">
<title>gestionlibros</title>
<polygon fill="none" stroke="black" stroke-width="2" points="446.59,-4.19 453.35,-3.88 460.09,-3.69 466.79,-3.63 473.43,-3.69 479.97,-3.87 486.38,-4.18 492.65,-4.62 498.76,-5.18 504.67,-5.86 510.37,-6.66 515.84,-7.58 521.06,-8.62 526.01,-9.78 530.69,-11.04 535.07,-12.41 539.15,-13.89 542.92,-15.47 546.36,-17.14 549.48,-18.9 552.27,-20.75 554.73,-22.67 556.85,-24.67 558.64,-26.74 560.11,-28.87 561.25,-31.06 562.07,-33.29 562.57,-35.56 562.78,-37.87 562.68,-40.21 562.3,-42.56 561.64,-44.93 560.72,-47.31 559.54,-49.68 558.12,-52.05 556.47,-54.4 554.6,-56.73 552.52,-59.02 550.25,-61.28 547.79,-63.5 545.17,-65.67 542.38,-67.78 539.44,-69.83 536.37,-71.81 533.16,-73.72 529.83,-75.55 526.39,-77.3 522.84,-78.95 519.19,-80.52 515.45,-81.99 511.62,-83.36 507.71,-84.63 503.72,-85.79 499.65,-86.84 495.52,-87.78 491.32,-88.61 487.05,-89.32 482.72,-89.92 478.34,-90.4 473.9,-90.76 469.4,-91.01 464.86,-91.13 460.27,-91.14 455.64,-91.04 450.96,-90.82 446.26,-90.48 441.53,-90.03 436.77,-89.48 432,-88.81 427.22,-88.04 422.44,-87.16 417.67,-86.18 412.92,-85.1 408.2,-83.93 403.53,-82.66 398.91,-81.31 394.36,-79.87 389.89,-78.35 385.53,-76.76 381.28,-75.09 377.15,-73.35 373.18,-71.55 369.37,-69.68 365.75,-67.77 362.32,-65.8 359.11,-63.78 356.14,-61.72 353.42,-59.63 350.96,-57.51 348.79,-55.35 346.92,-53.18 345.37,-50.99 344.14,-48.79 343.24,-46.59 342.7,-44.38 342.52,-42.18 342.71,-39.99 343.27,-37.82 344.21,-35.67 345.53,-33.54 347.24,-31.45 349.33,-29.4 351.79,-27.39 354.63,-25.42 357.84,-23.52 361.4,-21.67 365.32,-19.88 369.57,-18.16 374.14,-16.52 379.01,-14.96 384.17,-13.48 389.6,-12.09 395.27,-10.79 401.17,-9.59 407.27,-8.49 413.54,-7.49 419.96,-6.61 426.5,-5.83 433.14,-5.16 439.84,-4.62 446.59,-4.19"/>
<text text-anchor="middle" x="456.3" y="-43.93" font-family="sans-serif" font-size="16.00">gestionlibros</text>
</g>
<!-- gestionprestamos -->
<g id="node3" class="node">
<title>gestionprestamos</title>
<polygon fill="none" stroke="black" stroke-width="2" points="812.32,-83.74 805.3,-85.45 798.11,-87.04 790.79,-88.52 783.35,-89.87 775.82,-91.1 768.25,-92.19 760.64,-93.14 753.03,-93.94 745.45,-94.6 737.91,-95.11 730.45,-95.46 723.09,-95.66 715.85,-95.7 708.74,-95.59 701.8,-95.32 695.04,-94.9 688.47,-94.32 682.11,-93.59 675.98,-92.71 670.08,-91.68 664.43,-90.52 659.03,-89.22 653.9,-87.8 649.04,-86.25 644.45,-84.58 640.14,-82.8 636.12,-80.92 632.39,-78.94 628.94,-76.88 625.77,-74.74 622.9,-72.53 620.31,-70.26 618,-67.93 615.98,-65.56 614.23,-63.16 612.76,-60.73 611.57,-58.28 610.65,-55.82 609.99,-53.36 609.6,-50.91 609.47,-48.47 609.61,-46.06 610,-43.67 610.65,-41.32 611.55,-39.02 612.71,-36.76 614.12,-34.56 615.77,-32.41 617.68,-30.33 619.84,-28.32 622.24,-26.39 624.9,-24.53 627.8,-22.75 630.95,-21.05 634.34,-19.43 637.98,-17.9 641.87,-16.46 645.99,-15.11 650.36,-13.85 654.96,-12.69 659.8,-11.61 664.87,-10.63 670.16,-9.74 675.67,-8.94 681.39,-8.23 687.32,-7.62 693.43,-7.1 699.73,-6.67 706.21,-6.34 712.83,-6.09 719.61,-5.93 726.5,-5.87 733.51,-5.89 740.62,-6.01 747.79,-6.21 755.02,-6.5 762.27,-6.88 769.54,-7.35 776.79,-7.91 783.99,-8.55 791.14,-9.29 798.19,-10.11 805.12,-11.01 811.91,-12.01 818.53,-13.09 824.96,-14.26 831.16,-15.51 837.11,-16.85 842.78,-18.27 848.16,-19.77 853.22,-21.35 857.92,-23.02 862.27,-24.75 866.22,-26.57 869.77,-28.45 872.89,-30.4 875.57,-32.42 877.81,-34.5 879.57,-36.64 880.87,-38.83 881.68,-41.07 882.01,-43.35 881.85,-45.67 881.2,-48.02 880.07,-50.39 878.45,-52.78 876.35,-55.18 873.79,-57.59 870.77,-59.99 867.3,-62.38 863.41,-64.74 859.1,-67.08 854.4,-69.38 849.32,-71.64 843.89,-73.84 838.13,-75.98 832.07,-78.05 825.73,-80.03 819.13,-81.94 812.32,-83.74"/>
<text text-anchor="middle" x="735.3" y="-43.93" font-family="sans-serif" font-size="16.00">gestionprestamos</text>
</g>
<!-- gestionrevistas -->
<g id="node4" class="node">
<title>gestionrevistas</title>
<polygon fill="none" stroke="black" stroke-width="2" points="962.85,-83.39 956.55,-81.75 950.47,-80.03 944.65,-78.22 939.11,-76.34 933.87,-74.4 928.95,-72.39 924.37,-70.32 920.15,-68.21 916.32,-66.06 912.88,-63.87 909.84,-61.66 907.22,-59.43 905.04,-57.19 903.28,-54.94 901.97,-52.69 901.09,-50.44 900.66,-48.21 900.67,-45.99 901.12,-43.79 902,-41.62 903.3,-39.48 905.01,-37.38 907.13,-35.32 909.63,-33.3 912.51,-31.33 915.75,-29.42 919.32,-27.55 923.22,-25.75 927.42,-24.01 931.9,-22.33 936.63,-20.72 941.6,-19.17 946.79,-17.7 952.17,-16.31 957.72,-14.98 963.41,-13.74 969.23,-12.57 975.14,-11.49 981.14,-10.49 987.2,-9.58 993.29,-8.75 999.4,-8.01 1005.52,-7.36 1011.61,-6.8 1017.67,-6.34 1023.68,-5.97 1029.63,-5.69 1035.5,-5.52 1041.28,-5.44 1046.95,-5.46 1052.52,-5.58 1057.96,-5.81 1063.28,-6.14 1068.45,-6.57 1073.49,-7.11 1078.38,-7.75 1083.12,-8.49 1087.7,-9.34 1092.12,-10.29 1096.39,-11.35 1100.48,-12.51 1104.41,-13.77 1108.17,-15.13 1111.76,-16.59 1115.18,-18.15 1118.42,-19.8 1121.49,-21.54 1124.38,-23.36 1127.09,-25.27 1129.61,-27.26 1131.95,-29.32 1134.1,-31.45 1136.05,-33.64 1137.81,-35.89 1139.36,-38.19 1140.7,-40.54 1141.83,-42.92 1142.73,-45.34 1143.42,-47.78 1143.86,-50.24 1144.07,-52.7 1144.03,-55.16 1143.74,-57.62 1143.19,-60.06 1142.37,-62.47 1141.28,-64.85 1139.91,-67.19 1138.26,-69.48 1136.32,-71.7 1134.08,-73.87 1131.55,-75.95 1128.73,-77.96 1125.6,-79.88 1122.18,-81.69 1118.45,-83.41 1114.44,-85.02 1110.13,-86.51 1105.54,-87.87 1100.67,-89.12 1095.53,-90.23 1090.13,-91.21 1084.49,-92.05 1078.61,-92.75 1072.52,-93.31 1066.22,-93.72 1059.74,-93.99 1053.1,-94.11 1046.31,-94.09 1039.4,-93.93 1032.4,-93.62 1025.33,-93.17 1018.21,-92.58 1011.07,-91.86 1003.94,-91.01 996.84,-90.03 989.8,-88.93 982.86,-87.71 976.03,-86.37 969.36,-84.93 962.85,-83.39"/>
<text text-anchor="middle" x="1031.3" y="-43.93" font-family="sans-serif" font-size="16.00">gestionrevistas</text>
</g>
</g>
</svg>
